<svg width="401" height="156" viewBox="0 0 401 156" fill="none" xmlns="http://www.w3.org/2000/svg">
<path d="M0 0H401V156H0V0Z" fill="black"/>
<rect width="52" height="52" fill="white"/>
<rect y="52" width="52" height="52" fill="white"/>
<rect y="104" width="52" height="52" fill="white"/>
<rect x="52" y="104" width="52" height="52" fill="white"/>
<rect x="193" width="52" height="52" fill="white"/>
<rect x="141" width="52" height="52" fill="white"/>
<rect x="89" width="52" height="52" fill="white"/>
<rect x="37" width="52" height="52" fill="white"/>
<rect x="104" y="104" width="52" height="52" fill="white"/>
<rect x="156" y="104" width="52" height="52" fill="white"/>
<rect x="208" y="104" width="52" height="52" fill="white"/>
<rect x="260" y="104" width="52" height="52" fill="white"/>
<rect x="312" y="104" width="52" height="52" fill="white"/>
<rect x="349" y="104" width="52" height="52" fill="white"/>
<rect x="349" y="52" width="52" height="52" fill="white"/>
<rect x="349" width="52" height="52" fill="white"/>
<rect x="297" width="52" height="52" fill="white"/>
<rect x="245" width="52" height="52" fill="white"/>
<path d="M104.395 95H97.6449L109.935 60.0909H117.741L130.048 95H123.298L113.974 67.25H113.702L104.395 95ZM104.616 81.3125H123.026V86.392H104.616V81.3125ZM134.646 95V60.0909H140.817V73.1477H141.072C141.391 72.5114 141.839 71.8352 142.419 71.1193C142.999 70.392 143.783 69.7727 144.771 69.2614C145.76 68.7386 147.021 68.4773 148.555 68.4773C150.578 68.4773 152.402 68.9943 154.027 70.0284C155.663 71.0511 156.959 72.5682 157.913 74.5795C158.879 76.5795 159.362 79.0341 159.362 81.9432C159.362 84.8182 158.891 87.2614 157.947 89.2727C157.004 91.2841 155.72 92.8182 154.095 93.875C152.47 94.9318 150.629 95.4602 148.572 95.4602C147.072 95.4602 145.828 95.2102 144.839 94.7102C143.851 94.2102 143.055 93.608 142.453 92.9034C141.862 92.1875 141.402 91.5114 141.072 90.875H140.714V95H134.646ZM140.697 81.9091C140.697 83.6023 140.936 85.0852 141.413 86.358C141.902 87.6307 142.601 88.625 143.51 89.3409C144.43 90.0455 145.544 90.3977 146.851 90.3977C148.214 90.3977 149.357 90.0341 150.277 89.3068C151.197 88.5682 151.891 87.5625 152.357 86.2898C152.834 85.0057 153.072 83.5455 153.072 81.9091C153.072 80.2841 152.839 78.8409 152.374 77.5795C151.908 76.3182 151.214 75.3295 150.294 74.6136C149.374 73.8977 148.226 73.5398 146.851 73.5398C145.533 73.5398 144.413 73.8864 143.493 74.5795C142.572 75.2727 141.874 76.2443 141.396 77.4943C140.93 78.7443 140.697 80.2159 140.697 81.9091ZM176.028 95.5114C173.472 95.5114 171.256 94.9489 169.381 93.8239C167.506 92.6989 166.051 91.125 165.017 89.1023C163.994 87.0795 163.483 84.7159 163.483 82.0114C163.483 79.3068 163.994 76.9375 165.017 74.9034C166.051 72.8693 167.506 71.2898 169.381 70.1648C171.256 69.0398 173.472 68.4773 176.028 68.4773C178.585 68.4773 180.801 69.0398 182.676 70.1648C184.551 71.2898 186 72.8693 187.023 74.9034C188.057 76.9375 188.574 79.3068 188.574 82.0114C188.574 84.7159 188.057 87.0795 187.023 89.1023C186 91.125 184.551 92.6989 182.676 93.8239C180.801 94.9489 178.585 95.5114 176.028 95.5114ZM176.062 90.5682C177.449 90.5682 178.608 90.1875 179.54 89.4261C180.472 88.6534 181.165 87.6193 181.619 86.3239C182.085 85.0284 182.318 83.5852 182.318 81.9943C182.318 80.392 182.085 78.9432 181.619 77.6477C181.165 76.3409 180.472 75.3011 179.54 74.5284C178.608 73.7557 177.449 73.3693 176.062 73.3693C174.642 73.3693 173.46 73.7557 172.517 74.5284C171.585 75.3011 170.886 76.3409 170.42 77.6477C169.966 78.9432 169.739 80.392 169.739 81.9943C169.739 83.5852 169.966 85.0284 170.42 86.3239C170.886 87.6193 171.585 88.6534 172.517 89.4261C173.46 90.1875 174.642 90.5682 176.062 90.5682ZM210.499 83.9886V68.8182H216.669V95H210.686V90.3466H210.413C209.822 91.8125 208.851 93.0114 207.499 93.9432C206.158 94.875 204.504 95.3409 202.538 95.3409C200.822 95.3409 199.305 94.9602 197.987 94.1989C196.68 93.4261 195.658 92.3068 194.919 90.8409C194.18 89.3636 193.811 87.5795 193.811 85.4886V68.8182H199.982V84.5341C199.982 86.1932 200.436 87.5114 201.345 88.4886C202.254 89.4659 203.447 89.9545 204.925 89.9545C205.834 89.9545 206.714 89.733 207.567 89.2898C208.419 88.8466 209.118 88.1875 209.663 87.3125C210.22 86.4261 210.499 85.3182 210.499 83.9886ZM236.088 68.8182V73.5909H221.037V68.8182H236.088ZM224.753 62.5455H230.923V87.125C230.923 87.9545 231.048 88.5909 231.298 89.0341C231.56 89.4659 231.901 89.7614 232.321 89.9205C232.741 90.0795 233.207 90.1591 233.719 90.1591C234.105 90.1591 234.457 90.1307 234.776 90.0739C235.105 90.017 235.355 89.9659 235.526 89.9205L236.565 94.7443C236.236 94.858 235.764 94.983 235.151 95.1193C234.548 95.2557 233.81 95.3352 232.935 95.358C231.389 95.4034 229.997 95.1705 228.759 94.6591C227.52 94.1364 226.537 93.3295 225.81 92.2386C225.094 91.1477 224.741 89.7841 224.753 88.1477V62.5455ZM269.842 83.9886V68.8182H276.013V95H270.03V90.3466H269.757C269.166 91.8125 268.195 93.0114 266.842 93.9432C265.501 94.875 263.848 95.3409 261.882 95.3409C260.166 95.3409 258.649 94.9602 257.331 94.1989C256.024 93.4261 255.001 92.3068 254.263 90.8409C253.524 89.3636 253.155 87.5795 253.155 85.4886V68.8182H259.325V84.5341C259.325 86.1932 259.78 87.5114 260.689 88.4886C261.598 89.4659 262.791 89.9545 264.268 89.9545C265.178 89.9545 266.058 89.733 266.911 89.2898C267.763 88.8466 268.462 88.1875 269.007 87.3125C269.564 86.4261 269.842 85.3182 269.842 83.9886ZM303.051 75.7386L297.426 76.3523C297.267 75.7841 296.989 75.25 296.591 74.75C296.205 74.25 295.682 73.8466 295.023 73.5398C294.364 73.233 293.557 73.0795 292.602 73.0795C291.318 73.0795 290.239 73.358 289.364 73.9148C288.5 74.4716 288.074 75.1932 288.085 76.0795C288.074 76.8409 288.352 77.4602 288.92 77.9375C289.5 78.4148 290.455 78.8068 291.784 79.1136L296.25 80.0682C298.727 80.6023 300.568 81.4489 301.773 82.608C302.989 83.767 303.602 85.2841 303.614 87.1591C303.602 88.8068 303.119 90.2614 302.165 91.5227C301.222 92.7727 299.909 93.75 298.227 94.4545C296.545 95.1591 294.614 95.5114 292.432 95.5114C289.227 95.5114 286.648 94.8409 284.693 93.5C282.739 92.1477 281.574 90.267 281.199 87.858L287.216 87.2784C287.489 88.4602 288.068 89.3523 288.955 89.9545C289.841 90.5568 290.994 90.858 292.415 90.858C293.881 90.858 295.057 90.5568 295.943 89.9545C296.841 89.3523 297.29 88.608 297.29 87.7216C297.29 86.9716 297 86.3523 296.42 85.8636C295.852 85.375 294.966 85 293.761 84.7386L289.295 83.8011C286.784 83.2784 284.926 82.3977 283.722 81.1591C282.517 79.9091 281.92 78.3295 281.932 76.4205C281.92 74.8068 282.358 73.4091 283.244 72.2273C284.142 71.0341 285.386 70.1136 286.977 69.4659C288.58 68.8068 290.426 68.4773 292.517 68.4773C295.585 68.4773 298 69.1307 299.761 70.4375C301.534 71.7443 302.631 73.5114 303.051 75.7386Z" fill="white"/>
</svg>
